<svg width="38" height="32" viewBox="0 0 38 32" fill="none" xmlns="http://www.w3.org/2000/svg">
<path fill-rule="evenodd" clip-rule="evenodd" d="M8 2C8 0.89543 8.89543 0 10 0H28C29.1046 0 30 0.895431 30 2V22C30 23.1046 29.1046 24 28 24H10C8.89543 24 8 23.1046 8 22V2ZM11 4C11 3.44772 11.4477 3 12 3H26C26.5523 3 27 3.44772 27 4V16C27 16.5523 26.5523 17 26 17H12C11.4477 17 11 16.5523 11 16V4ZM2.20063 8.73825L6 7.72021V10.8261L4.90929 11.1184C4.37582 11.2613 4.05924 11.8097 4.20218 12.3431L6 19.0527V22C6 23.7708 7.15074 25.2729 8.74523 25.7992C8.93205 27.377 10.0552 28.7574 11.6834 29.1937L15.1362 30.1188L8.41229 31.9205C7.34536 32.2064 6.24868 31.5732 5.9628 30.5063L0.786418 11.1877C0.500535 10.1208 1.1337 9.02414 2.20063 8.73825ZM12.2006 27.2617C11.5409 27.0849 11.047 26.5981 10.8337 26H28C30.2091 26 32 24.2091 32 22V19.0517L33.7975 12.3432C33.9405 11.8098 33.6239 11.2614 33.0904 11.1185L32 10.8263V7.72033L35.799 8.73825C36.8659 9.02414 37.4991 10.1208 37.2132 11.1877L32.0368 30.5063C31.7509 31.5732 30.6542 32.2064 29.5873 31.9205L12.2006 27.2617Z" fill="#525A5A"/>
<path d="M20.8801 6.00001C20.5432 5.99903 20.2094 6.06876 19.8981 6.20519C19.5869 6.34161 19.3043 6.54201 19.0667 6.79478L19.0551 6.80705C19.0367 6.82654 19.0117 6.83754 18.9857 6.83765C18.9596 6.83777 18.9346 6.82698 18.916 6.80765C18.4337 6.30613 17.7837 6.02648 17.1075 6.02961C16.4312 6.03274 15.7835 6.3184 15.3054 6.82437C14.3057 7.88192 14.3057 9.60312 15.3054 10.6611L18.6271 13.6612C18.8399 13.8534 19.1638 13.8526 19.3755 13.6593L22.6932 10.6319C23.0519 10.2525 23.2962 9.76905 23.3952 9.24275C23.4942 8.71646 23.4435 8.17093 23.2494 7.67514C23.0554 7.17935 22.7267 6.75558 22.3049 6.45741C21.8832 6.15924 21.3874 6.00006 20.8801 6.00001Z" fill="#F0F3F3"/>
</svg>
