<svg width="15" height="15" viewBox="0 0 15 15" fill="none" xmlns="http://www.w3.org/2000/svg">
<path fill-rule="evenodd" clip-rule="evenodd" d="M10.5 2.25H4.5C3.25736 2.25 2.25 3.25736 2.25 4.5V10.5C2.25 11.7426 3.25736 12.75 4.5 12.75H10.5C11.7426 12.75 12.75 11.7426 12.75 10.5V4.5C12.75 3.25736 11.7426 2.25 10.5 2.25ZM4.5 0C2.01472 0 0 2.01472 0 4.5V10.5C0 12.9853 2.01472 15 4.5 15H10.5C12.9853 15 15 12.9853 15 10.5V4.5C15 2.01472 12.9853 0 10.5 0H4.5ZM7.50021 6.00001C6.67178 6.00001 6.00021 6.67159 6.00021 7.50001C6.00021 8.32844 6.67178 9.00001 7.50021 9.00001C8.32864 9.00001 9.00021 8.32844 9.00021 7.50001C9.00021 6.67159 8.32864 6.00001 7.50021 6.00001ZM4.50021 7.50001C4.50021 5.84316 5.84336 4.50001 7.50021 4.50001C9.15706 4.50001 10.5002 5.84316 10.5002 7.50001C10.5002 9.15687 9.15706 10.5 7.50021 10.5C5.84336 10.5 4.50021 9.15687 4.50021 7.50001ZM10.8752 4.87503C11.2894 4.87503 11.6252 4.53924 11.6252 4.12503C11.6252 3.71081 11.2894 3.37503 10.8752 3.37503C10.461 3.37503 10.1252 3.71081 10.1252 4.12503C10.1252 4.53924 10.461 4.87503 10.8752 4.87503Z" fill="#5B6464"/>
</svg>
