<svg width="24" height="24" viewBox="0 0 24 24" fill="none" xmlns="http://www.w3.org/2000/svg">
<path fill-rule="evenodd" clip-rule="evenodd" d="M12.87 3H11.13C9.15418 3 7.84972 3.00226 6.84951 3.08263C5.88345 3.16027 5.46363 3.29613 5.21209 3.42182C4.43723 3.80899 3.80899 4.43723 3.42182 5.21209C3.29613 5.46363 3.16027 5.88345 3.08263 6.84951C3.00226 7.84972 3 9.15418 3 11.13V12.87C3 14.8458 3.00226 16.1503 3.08263 17.1505C3.16027 18.1166 3.29613 18.5364 3.42182 18.7879C3.80899 19.5628 4.43723 20.191 5.21209 20.5782C5.46363 20.7039 5.88345 20.8397 6.84951 20.9174C7.84972 20.9977 9.15418 21 11.13 21H12.87C14.8458 21 16.1503 20.9977 17.1505 20.9174C18.1166 20.8397 18.5364 20.7039 18.7879 20.5782C19.5628 20.191 20.191 19.5628 20.5782 18.7879C20.7039 18.5364 20.8397 18.1166 20.9174 17.1505C20.9977 16.1503 21 14.8458 21 12.87V11.13C21 9.15418 20.9977 7.84972 20.9174 6.84951C20.8397 5.88345 20.7039 5.46363 20.5782 5.21209C20.191 4.43723 19.5628 3.80899 18.7879 3.42182C18.5364 3.29613 18.1166 3.16027 17.1505 3.08263C16.1503 3.00226 14.8458 3 12.87 3ZM0.738187 3.87115C0 5.3485 0 7.27566 0 11.13V12.87C0 16.7243 0 18.6515 0.738187 20.1289C1.41574 21.4848 2.51515 22.5843 3.87115 23.2618C5.3485 24 7.27566 24 11.13 24H12.87C16.7243 24 18.6515 24 20.1289 23.2618C21.4848 22.5843 22.5843 21.4848 23.2618 20.1289C24 18.6515 24 16.7243 24 12.87V11.13C24 7.27566 24 5.3485 23.2618 3.87115C22.5843 2.51515 21.4848 1.41574 20.1289 0.738187C18.6515 0 16.7243 0 12.87 0H11.13C7.27566 0 5.3485 0 3.87115 0.738187C2.51515 1.41574 1.41574 2.51515 0.738187 3.87115ZM19 6.5C19 7.32843 18.3284 8 17.5 8C16.6716 8 16 7.32843 16 6.5C16 5.67157 16.6716 5 17.5 5C18.3284 5 19 5.67157 19 6.5ZM14 12C14 13.1046 13.1046 14 12 14C10.8954 14 10 13.1046 10 12C10 10.8954 10.8954 10 12 10C13.1046 10 14 10.8954 14 12ZM17 12C17 14.7614 14.7614 17 12 17C9.23858 17 7 14.7614 7 12C7 9.23858 9.23858 7 12 7C14.7614 7 17 9.23858 17 12Z" fill="#17181B"/>
</svg>
