<svg width="64" height="56" viewBox="0 0 64 56" fill="none" xmlns="http://www.w3.org/2000/svg">
<path fill-rule="evenodd" clip-rule="evenodd" d="M59 20V48C59 49.6569 57.6569 51 56 51H8C6.34315 51 5 49.6569 5 48V20C5 18.3431 6.34315 17 8 17H12.2339C17.8295 17 22.7973 13.4194 24.5668 8.11096L24.92 7.05132C25.3284 5.82629 26.4748 5 27.7661 5H35.0557C36.192 5 37.2308 5.64201 37.739 6.65836L39.3167 9.81378C41.5188 14.218 46.0202 17 50.9443 17H56C57.6569 17 59 18.3431 59 20ZM0 20C0 15.5817 3.58172 12 8 12H12.2339C15.6774 12 18.7345 9.79656 19.8234 6.52982L20.1766 5.47018C21.2655 2.20344 24.3226 0 27.7661 0H35.0557C38.0859 0 40.856 1.71202 42.2111 4.42229L43.7889 7.57771C45.144 10.288 47.9141 12 50.9443 12H56C60.4183 12 64 15.5817 64 20V48C64 52.4183 60.4183 56 56 56H8C3.58172 56 0 52.4183 0 48V20ZM32 46C39.732 46 46 39.732 46 32C46 24.268 39.732 18 32 18C24.268 18 18 24.268 18 32C18 39.732 24.268 46 32 46ZM41 32C41 36.9706 36.9706 41 32 41C27.0294 41 23 36.9706 23 32C23 27.0294 27.0294 23 32 23C36.9706 23 41 27.0294 41 32Z" fill="#C5D2D2"/>
</svg>
