<svg width="36" height="42" viewBox="0 0 36 42" fill="none" xmlns="http://www.w3.org/2000/svg">
<path fill-rule="evenodd" clip-rule="evenodd" d="M17.0213 19.2768C16.8575 19.2005 16.7349 19.1221 16.6618 19.0736C16.42 18.9131 16.2115 18.7251 16.0473 18.5624C15.7132 18.2313 15.3679 17.8091 15.0359 17.3628C14.3621 16.4569 13.5971 15.2532 12.8791 13.9682C12.16 12.6814 11.4608 11.2643 10.9353 9.92589C10.6612 9.22787 10.4075 8.4859 10.2337 7.75702C4.18045 10.6565 0 16.8401 0 24C0 33.9411 8.05887 42 18 42C27.9411 42 36 33.9411 36 24C36 16.8401 31.8196 10.6565 25.7663 7.75702C25.5925 8.4859 25.3388 9.22787 25.0647 9.92589C24.8934 10.3621 24.7037 10.8068 24.5008 11.2525C24.5261 11.2341 24.553 11.2177 24.5813 11.2035L25.252 10.8664C28.0018 12.388 30.2231 14.7481 31.5708 17.6016L31.3087 17.7383C31.1788 17.806 31.0976 17.9404 31.0976 18.0866V19.7353C31.0976 19.8021 31.0806 19.8682 31.0477 19.9268L29.3624 22.946C29.3299 23.0046 29.3126 23.0707 29.3126 23.1375V24.8258C29.3126 24.9456 29.367 25.0585 29.4606 25.133L31.2381 26.5504C31.3257 26.6203 31.4394 26.6494 31.5501 26.6305L32.8069 26.4132C31.6839 33.3568 25.7944 38.7035 18.6036 38.9881C18.5014 38.7991 18.5014 38.5686 18.6086 38.3782L19.6562 36.515C19.7151 36.4104 19.8028 36.3246 19.9085 36.2676L20.6883 35.8498C20.7536 35.8146 20.8126 35.7682 20.862 35.7126L22.8163 33.5155C22.8971 33.4244 23.0025 33.3591 23.1196 33.3266L24.0694 33.0636C24.2571 33.0115 24.4101 32.8763 24.4846 32.6961L25.8566 29.3777C25.9953 29.0426 25.8238 28.6599 25.4815 28.5401L22.5413 27.5114C22.3936 27.4597 22.2704 27.355 22.1952 27.2175L21.9489 26.7657C21.8945 26.6656 21.8137 26.5821 21.7158 26.5243L19.5602 25.2504C19.4628 25.193 19.3521 25.1624 19.2387 25.1624H17.3627C17.1353 25.1624 16.9252 25.2848 16.813 25.4828L16.6732 25.7295C16.6392 25.7185 16.6037 25.7106 16.5667 25.7068C16.4247 25.6928 16.2943 25.6214 16.2056 25.5096L14.6359 23.5274C14.5093 23.368 14.3023 23.2951 14.104 23.3412L13.679 23.4394C13.5403 23.4715 13.3945 23.4458 13.2748 23.3687L12.6186 22.9452C12.4327 22.8255 12.3416 22.6022 12.39 22.3865L12.5513 21.6699C12.6053 21.4292 12.8192 21.2585 13.0655 21.2585H15.4768C15.6574 21.2585 15.8255 21.1659 15.9222 21.0133L17.0213 19.2768ZM20.7468 6.20825C20.2819 7.26338 19.227 8 18 8C16.773 8 15.7181 7.26338 15.2532 6.20825C16.1488 6.07112 17.0661 6 18 6C18.9339 6 19.8512 6.07112 20.7468 6.20825ZM17.1062 38.631L17.2859 38.9833C9.33323 38.6106 3 32.0449 3 24C3 20.8795 3.95287 17.9816 5.58351 15.5813L6.18462 16.1755C6.27453 16.2642 6.32969 16.3825 6.33951 16.5087L6.49591 18.4814C6.50498 18.5944 6.54993 18.7017 6.62473 18.787L10.6447 23.3767C10.6885 23.4265 10.7414 23.4681 10.8007 23.4983L14.3424 25.3143C14.3507 25.3184 14.3594 25.3226 14.3677 25.3264L15.4069 25.7907C15.5199 25.8413 15.6117 25.9297 15.6657 26.0411L15.9838 26.6939C16.0337 26.7963 16.1073 26.87 16.192 26.9191L15.8289 28.2798C15.7896 28.4272 15.8051 28.584 15.8724 28.7211L16.7276 30.4619C16.7809 30.5703 16.864 30.661 16.9672 30.7237L17.6785 31.1547C17.8954 31.2862 18.0125 31.5344 17.9762 31.7852L17.0435 38.2536C17.025 38.3828 17.0469 38.5146 17.1062 38.631Z" fill="#525A5A"/>
<path fill-rule="evenodd" clip-rule="evenodd" d="M18 17.5C19 17.5 24 9.31371 24 6C24 2.68629 21.3137 0 18 0C14.6863 0 12 2.68629 12 6C12 9.31371 17 17.5 18 17.5ZM18 8C19.6569 8 21 6.65685 21 5C21 3.34315 19.6569 2 18 2C16.3431 2 15 3.34315 15 5C15 6.65685 16.3431 8 18 8Z" fill="#F0F3F3"/>
</svg>
