<svg width="14" height="15" viewBox="0 0 14 15" fill="none" xmlns="http://www.w3.org/2000/svg">
<path d="M1.6178 13.2475H10.559L10.1319 11.8694C10.1953 11.9244 13.7952 15 13.7952 15V1.54687C13.7525 0.710625 13.0302 0 12.1347 0L1.62093 0.001875C0.726128 0.001875 0 0.71375 0 1.55V11.7C0 12.5819 0.724874 13.2475 1.6178 13.2475ZM8.23196 3.55188L8.21127 3.55938L8.21879 3.55188H8.23196ZM3.44691 4.345C4.5963 3.51125 5.66167 3.55125 5.66167 3.55125L5.74757 3.63563C4.34109 3.97 3.70338 4.59625 3.70338 4.59625C3.76859 4.5825 6.60852 2.94938 10.0498 4.6375C10.0498 4.6375 9.41082 4.05187 8.09087 3.67687L8.2075 3.5625C8.38998 3.56312 9.35564 3.59688 10.389 4.35C10.389 4.35 11.5453 6.31875 11.5453 8.7375C11.5071 8.69125 10.828 9.77875 9.08036 9.81625C9.08036 9.81625 8.78439 9.4825 8.5737 9.19125C9.5958 8.89875 9.9783 8.31375 9.9783 8.31375C7.98866 9.5625 6.24483 9.3675 4.15862 8.52375C4.13918 8.52375 4.1304 8.515 4.12037 8.505V8.50125C4.11034 8.49188 4.10156 8.4825 4.08212 8.4825H4.0445C3.91658 8.39875 3.8313 8.3575 3.8313 8.3575C3.8313 8.3575 4.21317 8.9425 5.19451 9.235C4.93679 9.52813 4.68158 9.86125 4.68158 9.86125C2.93461 9.82 2.29752 8.7325 2.29752 8.7325C2.29752 6.31 3.44691 4.345 3.44691 4.345Z" fill="#5B6464"/>
<path d="M8.34483 7.98188C8.79066 7.98188 9.15373 7.60688 9.15373 7.14438C9.15373 6.685 8.79255 6.31 8.34483 6.31V6.31188C7.90088 6.31188 7.53718 6.68563 7.53593 7.14813C7.53593 7.60688 7.89899 7.98188 8.34483 7.98188Z" fill="#5B6464"/>
<path d="M5.4491 7.98188C5.89493 7.98188 6.25799 7.60688 6.25799 7.14438C6.25799 6.685 5.89744 6.31 5.4516 6.31L5.4491 6.31188C5.00326 6.31188 4.6402 6.68563 4.6402 7.14813C4.6402 7.60688 5.00326 7.98188 5.4491 7.98188Z" fill="#5B6464"/>
</svg>
