<svg width="14" height="11" viewBox="0 0 14 11" fill="none" xmlns="http://www.w3.org/2000/svg">
<path d="M14 1.74231C13.4847 1.95312 12.9318 2.09611 12.3509 2.15994C12.9441 1.83198 13.3981 1.3118 13.6133 0.693863C13.0569 0.997572 12.4428 1.2181 11.7884 1.33765C11.2644 0.821501 10.519 0.5 9.69227 0.5C8.1062 0.5 6.82018 1.68739 6.82018 3.15104C6.82018 3.35863 6.84556 3.56138 6.89456 3.75526C4.50801 3.64458 2.39178 2.58885 0.975421 0.984639C0.727835 1.3756 0.587001 1.83115 0.587001 2.31743C0.587001 3.23747 1.09441 4.04927 1.86427 4.52421C1.3936 4.50968 0.950917 4.39014 0.563377 4.19142V4.22454C0.563377 5.50886 1.5537 6.58075 2.86682 6.8247C2.62624 6.88448 2.37255 6.91759 2.1101 6.91759C1.92464 6.91759 1.74528 6.90063 1.56944 6.86832C1.93511 7.92244 2.99543 8.689 4.2517 8.71001C3.26925 9.42084 2.03049 9.84328 0.685 9.84328C0.453176 9.84328 0.224824 9.83036 0 9.80693C1.27114 10.5606 2.78024 11 4.40218 11C9.68532 11 12.5732 6.95961 12.5732 3.45558L12.5635 3.11229C13.1278 2.74069 13.6159 2.27381 14 1.74231Z" fill="#5B6464"/>
</svg>
