<svg width="15" height="12" viewBox="0 0 15 12" fill="none" xmlns="http://www.w3.org/2000/svg">
<path d="M15 1.83104C14.4479 2.05692 13.8555 2.21012 13.2331 2.27851C13.8686 1.92712 14.3551 1.36979 14.5857 0.70771C13.9896 1.03311 13.3315 1.2694 12.6304 1.39748C12.069 0.844465 11.2704 0.5 10.3846 0.5C8.68521 0.5 7.30734 1.77221 7.30734 3.3404C7.30734 3.56282 7.33453 3.78005 7.38703 3.98778C4.83001 3.86919 2.56262 2.73806 1.04509 1.01926C0.779823 1.43815 0.628929 1.92623 0.628929 2.44725C0.628929 3.43301 1.17258 4.30279 1.99743 4.81166C1.49314 4.79609 1.01884 4.668 0.603619 4.4551V4.49057C0.603619 5.86664 1.66468 7.01509 3.07159 7.27647C2.81382 7.34051 2.54202 7.37599 2.26082 7.37599C2.06212 7.37599 1.86995 7.35782 1.68154 7.3232C2.07333 8.45261 3.20939 9.27393 4.5554 9.29644C3.50277 10.058 2.17552 10.5107 0.733929 10.5107C0.485546 10.5107 0.240883 10.4968 0 10.4717C1.36194 11.2792 2.97883 11.75 4.71663 11.75C10.3771 11.75 13.4712 7.42101 13.4712 3.66669L13.4609 3.29888C14.0655 2.90074 14.5885 2.40051 15 1.83104Z" fill="#5B6464"/>
</svg>
