<svg width="12" height="15" viewBox="0 0 12 15" fill="none" xmlns="http://www.w3.org/2000/svg">
<path d="M11.5947 1.68856C11.5103 1.63227 11.4259 1.63227 11.3415 1.66041C10.6379 1.96998 9.90619 1.74484 9.48405 1.18199C9.28705 0.928706 9.17448 0.590994 9.17448 0.281426C9.17448 0.196998 9.14634 0.140713 9.09006 0.0844277C9.03377 0.0281425 8.97749 0 8.89306 0H6.02251C5.85366 0 5.74109 0.11257 5.74109 0.281426V10.272C5.74109 10.3002 5.74109 10.3002 5.74109 10.3283C5.6848 10.8349 5.29081 11.2008 4.78424 11.2008C4.24953 11.2008 3.79925 10.7505 3.79925 10.2158C3.79925 9.70919 4.1651 9.3152 4.67167 9.25891C4.81238 9.23077 4.92495 9.1182 4.92495 8.97749V5.71295C4.92495 5.54409 4.81238 5.43152 4.64353 5.43152C4.64353 5.43152 4.61538 5.43152 4.58724 5.43152C1.99812 5.54409 0 7.62664 0 10.2158C0 12.8612 2.13884 15 4.78424 15C7.26079 15 9.34334 13.0863 9.54034 10.6379C9.56848 10.6098 9.56848 10.5535 9.56848 10.5253V5.09381C10.1876 5.23452 10.8349 5.29081 11.5103 5.17824C11.651 5.15009 11.7355 5.03752 11.7355 4.89681V1.9137C11.7355 1.82927 11.6792 1.74484 11.5947 1.68856Z" fill="#5B6464"/>
</svg>
