<svg width="14" height="14" viewBox="0 0 14 14" fill="none" xmlns="http://www.w3.org/2000/svg">
<path fill-rule="evenodd" clip-rule="evenodd" d="M9.8 2.1H4.2C3.0402 2.1 2.1 3.0402 2.1 4.2V9.8C2.1 10.9598 3.0402 11.9 4.2 11.9H9.8C10.9598 11.9 11.9 10.9598 11.9 9.8V4.2C11.9 3.0402 10.9598 2.1 9.8 2.1ZM4.2 0C1.8804 0 0 1.8804 0 4.2V9.8C0 12.1196 1.8804 14 4.2 14H9.8C12.1196 14 14 12.1196 14 9.8V4.2C14 1.8804 12.1196 0 9.8 0H4.2ZM7 5.6C6.2268 5.6 5.6 6.2268 5.6 7C5.6 7.7732 6.2268 8.4 7 8.4C7.7732 8.4 8.4 7.7732 8.4 7C8.4 6.2268 7.7732 5.6 7 5.6ZM4.2 7C4.2 5.4536 5.4536 4.2 7 4.2C8.5464 4.2 9.8 5.4536 9.8 7C9.8 8.5464 8.5464 9.8 7 9.8C5.4536 9.8 4.2 8.5464 4.2 7ZM10.15 4.55C10.5366 4.55 10.85 4.2366 10.85 3.85C10.85 3.4634 10.5366 3.15 10.15 3.15C9.7634 3.15 9.45 3.4634 9.45 3.85C9.45 4.2366 9.7634 4.55 10.15 4.55Z" fill="#5B6464"/>
</svg>
