<svg width="36" height="36" viewBox="0 0 36 36" fill="none" xmlns="http://www.w3.org/2000/svg">
<path fill-rule="evenodd" clip-rule="evenodd" d="M19 3H15.6133C15.6132 3.104 15.5965 3.21045 15.5613 3.31628L15.2279 4.31628C15.0918 4.72461 14.7097 5 14.2792 5H9.72076C9.29033 5 8.90819 4.72461 8.77208 4.31628L8.43874 3.31628C8.40346 3.21045 8.38682 3.104 8.38666 3H5C3.89543 3 3 3.89539 3 5V31C3 32.1046 3.89543 33 5 33H19C20.1046 33 21 32.1046 21 31V23H24V31C24 33.7615 21.7614 36 19 36H5C2.23858 36 0 33.7615 0 31V5C0 2.23853 2.23858 0 5 0H19C21.7614 0 24 2.23853 24 5V13H21V5C21 3.89539 20.1046 3 19 3ZM18 13C18 12.4478 17.5523 12 17 12H7C6.44772 12 6 12.4478 6 13C6 13.5522 6.44772 14 7 14H14.7639C15.3132 13.3862 16.1115 13 17 13H18ZM14 16H7C6.44772 16 6 16.4478 6 17C6 17.5522 6.44772 18 7 18H14V16ZM7 26C6.44772 26 6 26.4478 6 27V29C6 29.5522 6.44772 30 7 30H17C17.5523 30 18 29.5522 18 29V27C18 26.4478 17.5523 26 17 26H7ZM7 8C6.44772 8 6 8.44775 6 9C6 9.55225 6.44772 10 7 10H13C13.5523 10 14 9.55225 14 9C14 8.44775 13.5523 8 13 8H7Z" fill="#525A5A"/>
<path fill-rule="evenodd" clip-rule="evenodd" d="M28.6644 11.4795C28.0195 10.9063 27 11.3641 27 12.2269V15H17C16.4477 15 16 15.4477 16 16V20C16 20.5523 16.4477 21 17 21H27V23.7732C27 24.6361 28.0195 25.0939 28.6644 24.5207L35.1592 18.7475C35.6067 18.3497 35.6067 17.6505 35.1592 17.2527L28.6644 11.4795Z" fill="#F0F3F3"/>
</svg>
