<svg width="30" height="30" viewBox="0 0 30 30" fill="none" xmlns="http://www.w3.org/2000/svg">
<path fill-rule="evenodd" clip-rule="evenodd" d="M29.1415 0.857883C28.3605 0.0768318 27.0942 0.0768318 26.3132 0.857883L14.9995 12.1715L3.68585 0.857883C2.90472 0.0768356 1.63849 0.0768356 0.857361 0.857883C0.076355 1.63894 0.076355 2.90526 0.857361 3.68631L12.1711 15L0.857239 26.3137C0.0762329 27.0948 0.0762329 28.3611 0.857239 29.1422C1.63837 29.9232 2.90472 29.9232 3.68573 29.1422L14.9995 17.8284L26.3133 29.1422C27.0943 29.9232 28.3607 29.9232 29.1417 29.1422C29.9227 28.3611 29.9227 27.0948 29.1417 26.3137L17.8279 15L29.1415 3.68631C29.9227 2.90526 29.9227 1.63893 29.1415 0.857883Z" fill="white"/>
</svg>
