<svg width="162" height="40" viewBox="0 0 162 40" fill="none" xmlns="http://www.w3.org/2000/svg">
<path d="M0 4C0 1.79086 1.79086 0 4 0H158C160.209 0 162 1.79086 162 4V36C162 38.2091 160.209 40 158 40H4C1.79086 40 0 38.2091 0 36V4Z" fill="#17181B"/>
<path fill-rule="evenodd" clip-rule="evenodd" d="M46 3H158C158.552 3 159 3.44771 159 4V36C159 36.5523 158.552 37 158 37H46V3ZM43 3H4C3.44772 3 3 3.44772 3 4V36C3 36.5523 3.44772 37 4 37H43V3ZM0 4C0 1.79086 1.79086 0 4 0H158C160.209 0 162 1.79086 162 4V36C162 38.2091 160.209 40 158 40H4C1.79086 40 0 38.2091 0 36V4ZM56.9678 29H60.1358V22.544H63.1358L66.2558 29H69.7838L66.3518 22.184C67.3918 21.832 68.1678 21.24 68.6798 20.408C69.2078 19.576 69.4718 18.584 69.4718 17.432C69.4718 16.648 69.3518 15.936 69.1118 15.296C68.8878 14.656 68.5598 14.112 68.1278 13.664C67.7118 13.2 67.1998 12.848 66.5918 12.608C65.9838 12.368 65.2958 12.248 64.5278 12.248H56.9678V29ZM65.6558 19.4C65.3038 19.72 64.8238 19.88 64.2158 19.88H60.1358V15.008H64.2158C64.8238 15.008 65.3038 15.168 65.6558 15.488C66.0078 15.808 66.1838 16.272 66.1838 16.88V17.984C66.1838 18.592 66.0078 19.064 65.6558 19.4ZM87.9293 24.728L89.2733 29H92.5613L86.9933 12.248H83.0573L77.4413 29H80.6573L81.9773 24.728H87.9293ZM84.8813 15.128H85.0013L87.1613 22.016H82.7453L84.8813 15.128ZM112.526 29H99.9743V26.168L108.662 15.032H100.406V12.248H112.286V15.08L103.574 26.216H112.526V29ZM120.341 29H132.893V26.216H123.941L132.653 15.08V12.248H120.773V15.032H129.029L120.341 26.168V29ZM141.069 29V26.456H143.277V14.792H141.069V12.248H148.677V14.792H146.445V26.456H148.677V29H141.069ZM29 15C28.2896 15 27.6139 15.1481 27.0019 15.4152C26.5769 14.4895 26.0271 13.6329 25.3741 12.867C26.4625 12.3126 27.6948 12 29 12C33.4183 12 37 15.5817 37 20C37 24.4183 33.4183 28 29 28C27.6948 28 26.4625 27.6874 25.3741 27.133C26.0271 26.3671 26.5769 25.5105 27.0019 24.5848C27.6139 24.8519 28.2896 25 29 25C31.7614 25 34 22.7614 34 20C34 17.2386 31.7614 15 29 15Z" fill="#F0F3F3"/>
<circle r="8" transform="matrix(-1 0 0 1 17 20)" fill="#C5D2D2"/>
</svg>
